<svg width="32" height="32" viewBox="0 0 32 32" fill="none" xmlns="http://www.w3.org/2000/svg">
<path d="M2 19.111C3.29111 20.1097 5.23089 20.693 7.44445 20.6665C9.65801 20.693 11.5978 20.1097 12.8889 19.111C14.18 18.1123 16.1198 17.529 18.3333 17.5554C20.5469 17.529 22.4867 18.1123 23.7778 19.111" stroke="white" stroke-width="2.33334" stroke-linecap="round" stroke-linejoin="round"/>
<path d="M9.77778 2C9.28546 2.35338 8.88656 2.82129 8.61554 3.36333C8.34453 3.90536 8.20953 4.50523 8.22222 5.11111C8.20953 5.717 8.34453 6.31686 8.61554 6.8589C8.88656 7.40094 9.28546 7.86885 9.77778 8.22223" stroke="white" stroke-width="2.33334" stroke-linecap="round" stroke-linejoin="round"/>
<path d="M15.9999 2C15.5076 2.35338 15.1087 2.82129 14.8377 3.36333C14.5667 3.90536 14.4317 4.50523 14.4444 5.11111C14.4317 5.717 14.5667 6.31686 14.8377 6.8589C15.1087 7.40094 15.5076 7.86885 15.9999 8.22223" stroke="white" stroke-width="2.33334" stroke-linecap="round" stroke-linejoin="round"/>
<path d="M2 12.8888H23.7778V20.6666C23.7778 23.1419 22.7945 25.5159 21.0441 27.2663C19.2938 29.0166 16.9198 29.9999 14.4445 29.9999H11.3333C8.85799 29.9999 6.48401 29.0166 4.73367 27.2663C2.98333 25.5159 2 23.1419 2 20.6666V12.8888Z" stroke="white" stroke-width="2.33334" stroke-linecap="round" stroke-linejoin="round"/>
<path d="M23.3827 23.3516C24.0774 23.6706 24.8398 23.8139 25.6029 23.7692C26.366 23.7244 27.1064 23.4929 27.7591 23.0949C28.4118 22.697 28.9567 22.1448 29.3459 21.4869C29.7352 20.8291 29.9569 20.0856 29.9915 19.322C30.0262 18.5584 29.8727 17.7979 29.5446 17.1075C29.2165 16.4171 28.7238 15.8178 28.1099 15.3624C27.4959 14.907 26.7795 14.6094 26.0236 14.4957C25.2677 14.3821 24.4954 14.4558 23.7747 14.7105" stroke="white" stroke-width="2.33334" stroke-linecap="round" stroke-linejoin="round"/>
</svg>
